PathFileType	4	(X/Y/Z)	../Python\running\Running03\task.trc
DataRate	CameraRate	NumFrames	NumMarkers	Units	OrigDataRate	OrigDataStartFrame	OrigNumFrames
200.000000	200.000000	6	30	mm	200.000000	123	198
Frame#	Time	C7			RBAK			CLAV			STRN			RASI			RPSI			LASI			PE01			RTH2			RTH3			RD5M			RTOE			LTH2			LTH3			LTB2			LTB3			LHEE			LTOE			LD5M			RHEE			RTH1			RTB2			LPSI			T10			RTB1			PE03			RTB3			PE02			LTH1			LTB1			
		X1	Y1	Z1	X2	Y2	Z2	X3	Y3	Z3	X4	Y4	Z4	X5	Y5	Z5	X6	Y6	Z6	X7	Y7	Z7	X8	Y8	Z8	X9	Y9	Z9	X10	Y10	Z10	X11	Y11	Z11	X12	Y12	Z12	X13	Y13	Z13	X14	Y14	Z14	X15	Y15	Z15	X16	Y16	Z16	X17	Y17	Z17	X18	Y18	Z18	X19	Y19	Z19	X20	Y20	Z20	X21	Y21	Z21	X22	Y22	Z22	X23	Y23	Z23	X24	Y24	Z24	X25	Y25	Z25	X26	Y26	Z26	X27	Y27	Z27	X28	Y28	Z28	X29	Y29	Z29	X30	Y30	Z30	

124	0.615	705.4449462890627	1351.760131835938	167.0320281982422	680.2395629882815	1259.195922851563	290.7320556640626	820.8521118164067	1248.986694335938	142.2188720703126	850.9747924804692	1053.284912109375	139.2580108642579	771.735229492188	853.1379394531255	295.9705810546876	591.9485473632815	933.6062622070317	222.9808044433595	792.9376831054692	855.1628417968755	68.76801300048831	610.5604248046877	963.442993164063	182.1119537353516	603.0072021484377	510.5367431640627	288.7112731933595	646.767272949219	553.3335571289065	298.1784057617189	378.7034912109376	32.25452423095705	248.6855926513673	414.8240661621096	27.80986785888673	201.5120239257814	829.401977539063	564.5093383789065	54.40914535522464	876.2857055664067	627.9848632812502	41.66419219970705	792.248901367188	259.9993896484376	54.90638732910159	839.0794067382817	275.3059692382814	62.93127822875979	699.3875732421877	92.44918060302737	101.7851562500001	876.2904663085942	61.72150421142581	101.0309600830079	845.4851684570317	58.77900695800784	50.8615646362305	290.113250732422	144.7590637207032	173.4607391357422	610.8748168945315	587.4449462890627	309.075653076172	443.8457031250002	296.5965576171876	267.8054199218751	596.6254882812502	930.257446289063	137.3251037597657	636.7161254882815	1063.598876953125	182.5223846435547	504.1903381347659	308.5522766113282	264.9739685058595	580.523620605469	913.0629272460942	147.9658813476563	452.3775024414065	248.9035186767579	253.8488922119142	572.843933105469	910.7111816406255	197.6963653564454	827.0695190429692	622.8878173828127	35.80285263061525	823.1553344726567	333.2268676757814	48.95244979858401	
125	0.62	722.488464355469	1354.999267578125	166.0877838134766	699.202819824219	1263.842163085938	290.9631347656251	837.511840820313	1252.7265625	140.3278350830079	868.0595092773442	1057.000366210938	138.5421600341797	789.5364379882817	855.5411987304692	296.8027343750001	610.1165771484377	936.6253051757817	224.4989318847657	811.2099609375005	859.7614135742192	70.06218719482425	629.100036621094	966.341430664063	184.0139770507813	614.4625244140627	515.2857666015627	287.8201904296876	658.9926757812502	557.2047119140627	297.3159179687501	381.1452636718751	34.66575241088869	248.1046600341798	416.4431152343752	28.38156318664552	201.2271728515626	846.1760253906255	568.395690917969	55.42792510986331	893.5234375000005	631.5693359375002	43.37865066528322	822.2969360351567	256.4805297851564	54.52712631225589	867.9218139648442	274.6168823242189	62.90827560424808	738.7619628906252	85.73944854736331	101.3540191650391	915.9440307617192	58.49278640747073	103.0133972167969	886.0431518554692	54.81122589111331	52.36328125000003	300.7430725097657	152.8389739990235	172.2522277832032	623.687438964844	592.009704589844	308.274871826172	451.481628417969	303.2523498535157	266.9559631347657	614.8372192382815	933.7488403320317	138.9020233154297	654.069274902344	1067.046630859375	185.2373657226563	511.8414001464846	315.3159484863282	264.7760314941407	598.8257446289065	916.7555541992192	149.0492248535157	460.2314453125002	255.3943176269532	253.9784698486329	590.6704101562502	913.809204101563	198.7254180908204	844.2116088867192	626.9329833984377	37.29127120971681	848.6625976562505	331.3681640625001	48.48672103881839	
126	0.625	739.5380859375002	1358.082397460938	165.1201934814454	718.1103515625002	1268.32958984375	291.0830383300782	854.1565551757817	1256.294677734375	138.4798583984376	885.2118530273442	1060.629638671875	137.8798980712891	807.338989257813	857.8332519531255	297.6519165039064	628.4094238281252	939.6270141601567	225.9574432373048	829.5415649414067	864.2302856445317	71.47859191894534	647.7667236328127	969.1744995117192	185.8311920166016	626.1313476562502	520.0660400390627	287.0382080078126	671.388610839844	561.090026855469	296.6918945312501	384.0816040039065	37.50197219848634	247.3941955566407	418.6338500976565	29.37220191955568	200.8207855224611	862.4270629882817	571.8791503906252	56.2390060424805	910.3981323242192	634.6201171875002	45.04373168945314	852.1404418945317	253.2493133544923	54.23036575317386	896.3798217773442	274.1394042968751	62.90310668945315	778.0756225585942	80.07019042968753	101.1841583251954	955.2824096679692	55.73955917358401	105.2425765991212	926.3232421875005	51.47359466552737	54.09648513793948	311.8784179687501	160.9068145751954	171.0383453369141	636.6853027343752	596.581970214844	307.5431213378907	459.6811828613284	309.874969482422	266.0735473632814	633.1663208007815	937.187377929688	140.4216613769532	671.4473876953127	1070.39013671875	187.8309631347657	520.0635375976565	322.0088806152345	264.6051635742189	617.2222900390627	920.4072265625005	150.0947875976563	468.6325683593752	261.8536682128907	254.107635498047	608.5954589843752	916.9141235351567	199.7056884765626	861.0166625976567	630.604919433594	38.66852188110353	873.8213500976567	329.5391235351564	48.07328414916995	
127	0.63	756.5899047851565	1360.981689453125	164.1351318359376	736.956237792969	1272.620361328125	291.1041870117189	870.7891235351567	1259.659301757813	136.6794586181641	902.424438476563	1064.151977539063	137.2701721191407	825.1325073242192	859.9880371093755	298.5069274902345	646.815124511719	942.6027221679692	227.3572235107423	847.9091796875005	868.5289916992192	72.99712371826175	666.5310668945315	971.9343261718755	187.5661010742188	637.9899902343752	524.835144042969	286.3792114257814	683.9302978515627	564.9543457031252	296.3328247070314	387.5828247070315	40.83230209350587	246.5360260009767	421.4687194824221	30.87494277954103	200.2638702392579	878.2165527343755	574.9509887695315	56.8139572143555	926.9264526367192	637.1643066406252	46.61267089843751	881.6701660156255	250.3424224853517	54.03654479980472	924.3778686523442	273.8882751464845	62.91040802001956	817.1629028320317	75.43470764160159	101.2737045288087	994.2424316406255	53.67438125610354	107.6604309082032	966.2194824218755	48.91004943847659	56.01609039306643	323.3538208007814	168.9456634521485	169.8445281982422	649.844177246094	601.118835449219	306.894989013672	468.4623107910159	316.3985900878907	265.1610107421876	651.5864868164065	940.554321289063	141.8861389160157	688.842956542969	1073.599975585938	190.2801361083985	528.8808593750002	328.5292053222657	264.4387817382814	635.696472167969	923.996459960938	151.1036376953126	477.5674133300784	268.2165527343751	254.2019653320314	626.6148071289065	920.0012817382817	200.6388092041017	877.515258789063	633.8877563476565	39.89312744140626	898.5792846679692	327.7642517089845	47.7357521057129	
128	0.635	773.6400756835942	1363.671997070313	163.138168334961	755.7337036132815	1276.679077148438	291.0393981933595	887.4129028320317	1262.792602539063	134.9309539794922	919.6890258789067	1067.547119140625	136.7123260498047	842.9094238281255	861.984497070313	299.3561401367189	665.3171997070315	945.5421752929692	228.6980133056642	866.2893676757817	872.6174926757817	74.59390258789065	685.3603515625002	974.6139526367192	189.2190093994141	650.0467529296877	529.5374755859377	285.8524475097657	696.6194458007815	568.757507324219	296.2503967285157	391.704772949219	44.71068572998048	245.5179595947267	424.9999084472659	32.97116088867189	199.5291442871095	893.618774414063	577.609802246094	57.13705825805667	943.1389770507817	639.237487792969	48.03509521484378	910.7699584960942	247.7891082763673	53.96603012084964	951.8395996093755	273.8721618652345	62.92514419555667	855.849975585938	71.806755065918	101.6162261962891	1032.74853515625	52.50099182128909	110.1943130493165	1005.608642578125	47.23962783813478	58.06982040405276	335.0079956054689	176.9467773437501	168.6836090087891	663.159606933594	605.5682373046877	306.342254638672	477.839782714844	322.760955810547	264.2237854003907	670.0694580078127	943.8301391601567	143.2959594726563	706.2482910156252	1076.64794921875	192.5637207031251	538.3137817382815	334.7797241210939	264.2525329589845	654.231140136719	927.4996948242192	152.0751190185547	487.0197753906252	274.4221191406251	254.2248382568361	644.7215576171877	923.0430297851567	201.5251312255861	893.7458496093755	636.7703247070315	40.92656326293947	922.886596679688	326.0666809082032	47.49480056762697	
129	0.64	790.6850585937505	1366.13134765625	162.1345520019532	774.4353637695317	1280.473510742188	290.9013671875001	904.0319213867192	1265.670043945313	133.2385711669922	936.9966430664067	1070.79638671875	136.2060546875001	860.6645507812505	863.8076782226567	300.1881408691407	683.8950805664065	948.4319458007817	229.977996826172	884.6587524414067	876.4572753906255	76.24214935302737	704.2192993164065	977.2065429687505	190.7871704101563	662.3410644531252	534.1026611328127	285.4612731933595	709.4849243164065	572.4522094726565	296.4400024414064	396.4805297851565	49.16887664794925	244.3347930908204	429.2528076171877	35.72220993041994	198.593231201172	908.7182006835942	579.8604125976565	57.20739364624026	959.0812377929692	640.8779296875002	49.26010513305667	939.323852539063	245.6102752685548	54.03747940063479	978.6931152343755	274.0933532714845	62.94302368164065	893.958374023438	69.14376068115237	102.2016677856446	1070.709594726563	52.38367080688479	112.7581405639649	1044.349975585938	46.53609466552736	60.20024108886722	346.6991577148439	184.9082641601563	167.5532531738282	676.6475219726565	609.8688964843752	305.8924560546876	487.8252563476565	328.9050903320314	263.2698974609376	688.5857543945315	946.994262695313	144.6493225097657	723.6555175781252	1079.507446289063	194.6630096435548	548.3784179687502	340.6722412109376	264.0226135253907	672.8087158203127	930.8908081054692	153.0068054199219	496.9729919433596	280.4153747558595	254.140350341797	662.9061279296877	926.0090332031255	202.3638305664064	909.7545776367192	639.2457275390627	41.73606491088869	946.698608398438	324.468719482422	47.36782073974611	
